<svg width="31" height="24" viewBox="0 0 31 24" fill="none" xmlns="http://www.w3.org/2000/svg">
<path d="M30.0226 16.4398C30.0226 17.3902 28.8887 18.5584 27.9665 18.5584H27.1268C27.1277 12.7422 27.1277 6.22182 27.1268 5.06445C27.1264 5.03018 27.1328 4.99617 27.1456 4.96438C27.1585 4.93259 27.1774 4.90364 27.2014 4.87919C27.2254 4.85473 27.254 4.83526 27.2856 4.82187C27.3171 4.80849 27.351 4.80146 27.3853 4.80119H29.763C29.9058 4.80119 30.0227 4.92102 30.0227 5.06651V16.4398H30.0226ZM26.1481 20.5993C26.1481 21.2009 25.8537 22.2086 23.8819 22.2086C20.0608 22.2086 17.7151 19.2149 17.7151 17.0678C17.7151 17.0678 17.7108 10.1254 17.7108 5.06664C17.7104 5.03232 17.7168 4.99826 17.7297 4.96642C17.7425 4.93458 17.7615 4.90559 17.7856 4.88112C17.8096 4.85666 17.8383 4.83719 17.8699 4.82385C17.9016 4.81051 17.9355 4.80355 17.9698 4.80338H20.3504C20.4933 4.80338 20.6107 4.92244 20.6107 5.06883V16.2236C20.6107 18.0667 22.0693 19.5616 23.8675 19.5616H26.1494L26.1481 20.5993ZM29.9434 3.80079H27.2044C26.6221 3.80079 26.1478 4.28719 26.1478 4.88387V18.5595H23.8658C22.6068 18.5595 21.5864 17.5135 21.5864 16.2234V4.88387C21.5864 4.28577 21.1128 3.80027 20.5293 3.80027H17.7891C17.2056 3.80027 16.7321 4.28577 16.7312 4.88387C16.7298 9.82834 16.7355 17.0681 16.7355 17.0681C16.7358 20.8735 20.8975 23.2102 23.8812 23.2102C25.8825 23.2102 27.1255 22.2076 27.1255 20.5924V19.5613H27.9661C29.4405 19.5613 31.0001 17.9572 31.0001 16.4398V4.88387C31.0015 4.28577 30.528 3.80027 29.9435 3.80027V3.80079H29.9434ZM13.7557 18.3164C13.756 18.3507 13.7496 18.3847 13.7367 18.4164C13.7239 18.4482 13.7049 18.4772 13.6808 18.5016C13.6568 18.526 13.6281 18.5454 13.5966 18.5587C13.565 18.572 13.5311 18.579 13.4968 18.5791H11.1163C10.9714 18.5791 10.8553 18.459 10.856 18.3143V7.1594C10.856 5.31648 9.39691 3.82156 7.59913 3.82156H5.31715V2.78362C5.31715 2.18333 5.61149 1.17429 7.58327 1.17429C11.4045 1.17429 13.7509 4.16788 13.7509 6.31508C13.7509 6.31508 13.7552 13.2912 13.7552 18.3163H13.7557V18.3164ZM1.70108 18.5815C1.55623 18.5772 1.44041 18.4605 1.44208 18.3156V6.94439C1.44208 5.99391 2.57611 4.82415 3.49796 4.82415H4.33842C4.33713 13.153 4.33713 17.4149 4.33842 18.3151C4.33907 18.3847 4.31215 18.4516 4.26353 18.5014C4.21492 18.5511 4.14858 18.5796 4.07903 18.5806H1.70147L1.70108 18.5815ZM14.7279 6.3152C14.7285 2.5094 10.5667 0.172729 7.5834 0.172729C5.58157 0.172729 4.33842 1.17519 4.33842 2.79046V3.82156H3.49834C2.02341 3.82156 0.463867 5.42573 0.463867 6.94323V18.499C0.463867 19.0971 0.937368 19.5826 1.52063 19.5826H4.25909C4.27612 19.5826 4.29069 19.578 4.30772 19.578C4.86738 19.551 5.31573 19.0797 5.31573 18.499V4.82338H7.5981C8.8566 4.82338 9.87751 5.86944 9.87751 7.15953V18.4992C9.87751 19.0973 10.3511 19.5828 10.9343 19.5828H13.6749C14.2584 19.5828 14.7317 19.0985 14.7317 18.4992C14.7338 13.4625 14.7283 6.31495 14.7283 6.31495L14.7279 6.3152Z" fill="white"/>
</svg>
